<svg xmlns="http://www.w3.org/2000/svg" viewBox="0 0 2436 1125"><defs><style>.cls-1{fill:#333;}.cls-2{fill:#1c98c1;}.cls-3{fill:#f28705;}.cls-4{fill:#fed060;}</style></defs><g id="Ebene_2" data-name="Ebene 2"><g id="Claim"><path class="cls-1" d="M73.31,767.09v17.12a4.06,4.06,0,0,0,.9,3,4.39,4.39,0,0,0,3.12.88h3.55v4.08H76.54q-4,0-6-1.86t-2-6.09V767.09H64.73v-4h3.76V755.8h4.82v7.32h7.57v4Z"/><path class="cls-1" d="M107,764a10,10,0,0,1,4.16,4.21A14.26,14.26,0,0,1,112.7,775v17.12h-4.77V775.73q0-4.35-2.17-6.65a7.74,7.74,0,0,0-5.93-2.31,7.94,7.94,0,0,0-6.06,2.39q-2.25,2.39-2.25,6.94v16.06H86.7V752.94h4.82v14.31a9.5,9.5,0,0,1,3.94-3.44,12.68,12.68,0,0,1,5.64-1.22A12.39,12.39,0,0,1,107,764Z"/><path class="cls-1" d="M146.9,779.44H123.71a9.12,9.12,0,0,0,9.43,9.11,8.89,8.89,0,0,0,5.21-1.45,7.75,7.75,0,0,0,2.94-3.9h5.18a12.44,12.44,0,0,1-4.65,6.81,14,14,0,0,1-8.68,2.62,14.61,14.61,0,0,1-7.39-1.85,13.17,13.17,0,0,1-5.11-5.27,16.33,16.33,0,0,1-1.85-7.93,16.58,16.58,0,0,1,1.8-7.89,12.61,12.61,0,0,1,5.06-5.22,15,15,0,0,1,7.49-1.83,14.55,14.55,0,0,1,7.3,1.8,12.5,12.5,0,0,1,4.9,5,14.68,14.68,0,0,1,1.72,7.12A27.45,27.45,0,0,1,146.9,779.44Zm-6-8.67a8,8,0,0,0-3.31-3,10.33,10.33,0,0,0-4.64-1,9,9,0,0,0-6.22,2.33,9.54,9.54,0,0,0-2.94,6.47h18.32A9,9,0,0,0,140.87,770.77Z"/><path class="cls-1" d="M167.55,769.71a13.11,13.11,0,0,1,4.95-5.22,13.63,13.63,0,0,1,7-1.85,12.92,12.92,0,0,1,6.62,1.64,11,11,0,0,1,4.18,4.13v-5.29h4.87v29h-4.87v-5.41a11.35,11.35,0,0,1-4.26,4.22,12.75,12.75,0,0,1-6.59,1.66,13.14,13.14,0,0,1-7-1.9,13.41,13.41,0,0,1-4.92-5.35,16.73,16.73,0,0,1-1.8-7.85A16.35,16.35,0,0,1,167.55,769.71ZM189,771.86a9.4,9.4,0,0,0-3.57-3.74,10.1,10.1,0,0,0-9.88,0,9.28,9.28,0,0,0-3.55,3.71,11.82,11.82,0,0,0-1.32,5.72,12.15,12.15,0,0,0,1.32,5.81,9.48,9.48,0,0,0,3.55,3.76,9.64,9.64,0,0,0,4.92,1.29,9.79,9.79,0,0,0,5-1.29,9.33,9.33,0,0,0,3.57-3.76,12.06,12.06,0,0,0,1.32-5.76A11.84,11.84,0,0,0,189,771.86Z"/><path class="cls-1" d="M211.78,764a11.2,11.2,0,0,1,5.75-1.37v5h-1.27q-8.12,0-8.11,8.8v15.79h-4.82v-29h4.82v4.71A9.29,9.29,0,0,1,211.78,764Z"/><path class="cls-1" d="M229,767.09v17.12a4.06,4.06,0,0,0,.9,3,4.4,4.4,0,0,0,3.13.88h3.54v4.08h-4.34c-2.68,0-4.7-.62-6-1.86s-2-3.26-2-6.09V767.09h-3.76v-4h3.76V755.8H229v7.32h7.57v4Z"/><path class="cls-1" d="M261.76,790.78a13.16,13.16,0,0,1-5.19-5.27,16.23,16.23,0,0,1-1.88-7.93,15.72,15.72,0,0,1,1.93-7.87,13.41,13.41,0,0,1,5.27-5.24,16.14,16.14,0,0,1,14.93,0,13.42,13.42,0,0,1,5.27,5.22,15.64,15.64,0,0,1,1.93,7.89,15.44,15.44,0,0,1-2,7.93,13.73,13.73,0,0,1-5.37,5.27,15.37,15.37,0,0,1-7.52,1.85A14.76,14.76,0,0,1,261.76,790.78Zm12.25-3.6a9.25,9.25,0,0,0,3.68-3.66,11.66,11.66,0,0,0,1.41-5.94,11.85,11.85,0,0,0-1.38-5.93,9,9,0,0,0-3.6-3.63,10.32,10.32,0,0,0-9.66,0,8.63,8.63,0,0,0-3.52,3.63,12.17,12.17,0,0,0-1.33,5.93,12.54,12.54,0,0,0,1.3,6,8.59,8.59,0,0,0,3.47,3.63,9.64,9.64,0,0,0,4.76,1.19A10.16,10.16,0,0,0,274,787.18Z"/><path class="cls-1" d="M302.18,767.09h-6.09v25.07h-4.82V767.09h-3.76v-4h3.76v-2.07q0-4.87,2.52-7.13c1.68-1.5,4.36-2.25,8.07-2.25v4c-2.12,0-3.61.41-4.47,1.24a5.49,5.49,0,0,0-1.3,4.11v2.07h6.09Z"/><path class="cls-1" d="M331.09,764.28a12.85,12.85,0,0,1,6.51-1.64,13.58,13.58,0,0,1,7,1.85,13.18,13.18,0,0,1,4.92,5.22,16.35,16.35,0,0,1,1.8,7.82,16.73,16.73,0,0,1-1.8,7.85,13.17,13.17,0,0,1-12,7.25A12.84,12.84,0,0,1,331,791a11.17,11.17,0,0,1-4.27-4.19v5.36h-4.82V752.94h4.82v15.58A11.45,11.45,0,0,1,331.09,764.28Zm14,7.53a9.22,9.22,0,0,0-3.58-3.71,9.87,9.87,0,0,0-5-1.28,9.74,9.74,0,0,0-4.9,1.3,9.49,9.49,0,0,0-3.6,3.77,11.65,11.65,0,0,0-1.35,5.69,11.84,11.84,0,0,0,1.35,5.76,9.53,9.53,0,0,0,3.6,3.76,10,10,0,0,0,9.85,0,9.42,9.42,0,0,0,3.58-3.76,12.15,12.15,0,0,0,1.32-5.81A11.82,11.82,0,0,0,345.12,771.81Z"/><path class="cls-1" d="M383.44,763.12v29h-4.81v-4.29a9.43,9.43,0,0,1-3.84,3.47,11.85,11.85,0,0,1-5.43,1.24,13,13,0,0,1-6.08-1.4A10.21,10.21,0,0,1,359,787a13.88,13.88,0,0,1-1.56-6.83v-17h4.77v16.37q0,4.29,2.17,6.6a7.72,7.72,0,0,0,5.93,2.3A7.9,7.9,0,0,0,376.4,786q2.24-2.38,2.23-6.94v-16Z"/><path class="cls-1" d="M395.89,791.49a9.93,9.93,0,0,1-4.18-3.17,8.47,8.47,0,0,1-1.7-4.69h5a4.92,4.92,0,0,0,2,3.55,7.76,7.76,0,0,0,4.8,1.37,7,7,0,0,0,4.34-1.21,3.77,3.77,0,0,0,1.59-3.08,3,3,0,0,0-1.7-2.83,23.5,23.5,0,0,0-5.24-1.83,39.87,39.87,0,0,1-5.27-1.72,9.38,9.38,0,0,1-3.49-2.6,7.34,7.34,0,0,1-.13-8.61,8.86,8.86,0,0,1,3.76-2.94,13.38,13.38,0,0,1,5.55-1.09,11.87,11.87,0,0,1,7.79,2.44,8.83,8.83,0,0,1,3.18,6.67h-4.82a5,5,0,0,0-1.83-3.65,6.81,6.81,0,0,0-4.48-1.38,6.89,6.89,0,0,0-4.12,1.11,3.44,3.44,0,0,0-1.54,2.92,3.16,3.16,0,0,0,.93,2.35,6.63,6.63,0,0,0,2.33,1.49,37.55,37.55,0,0,0,3.89,1.24,42.42,42.42,0,0,1,5.08,1.68A8.67,8.67,0,0,1,411,780a6.59,6.59,0,0,1,1.46,4.29,7.29,7.29,0,0,1-1.33,4.29,8.7,8.7,0,0,1-3.73,3,13.37,13.37,0,0,1-5.53,1.08A14.8,14.8,0,0,1,395.89,791.49Z"/><path class="cls-1" d="M419.39,757.44a3.18,3.18,0,0,1-.95-2.33,3.24,3.24,0,0,1,3.28-3.28,3,3,0,0,1,2.25.95,3.23,3.23,0,0,1,.93,2.33,3.2,3.2,0,0,1-.93,2.33,3,3,0,0,1-2.25,1A3.18,3.18,0,0,1,419.39,757.44Zm4.66,5.68v29h-4.81v-29Z"/><path class="cls-1" d="M455,765.79q3.28,3.21,3.28,9.25v17.12h-4.76V775.73c0-2.9-.73-5.12-2.17-6.65a7.76,7.76,0,0,0-5.93-2.31,7.92,7.92,0,0,0-6.06,2.39q-2.25,2.39-2.25,6.94v16.06h-4.82v-29h4.82v4.13a9.55,9.55,0,0,1,3.89-3.44,12,12,0,0,1,5.42-1.22A11.79,11.79,0,0,1,455,765.79Z"/><path class="cls-1" d="M492.45,779.44H469.27a9.11,9.11,0,0,0,9.42,9.11,8.89,8.89,0,0,0,5.21-1.45,7.64,7.64,0,0,0,2.94-3.9H492a12.51,12.51,0,0,1-4.66,6.81,14,14,0,0,1-8.68,2.62,14.61,14.61,0,0,1-7.39-1.85,13.17,13.17,0,0,1-5.11-5.27,18.06,18.06,0,0,1-.05-15.82,12.67,12.67,0,0,1,5.06-5.22,15,15,0,0,1,7.49-1.83,14.59,14.59,0,0,1,7.31,1.8,12.54,12.54,0,0,1,4.89,5,14.57,14.57,0,0,1,1.72,7.12A27.45,27.45,0,0,1,492.45,779.44Zm-6-8.67a8,8,0,0,0-3.31-3,10.32,10.32,0,0,0-4.63-1,9,9,0,0,0-6.23,2.33,9.49,9.49,0,0,0-2.93,6.47h18.31A9,9,0,0,0,486.42,770.77Z"/><path class="cls-1" d="M503.25,791.49a10,10,0,0,1-4.18-3.17,8.46,8.46,0,0,1-1.69-4.69h5a4.9,4.9,0,0,0,2,3.55,7.75,7.75,0,0,0,4.79,1.37,7,7,0,0,0,4.34-1.21,3.74,3.74,0,0,0,1.59-3.08,3,3,0,0,0-1.69-2.83,23.69,23.69,0,0,0-5.24-1.83,39.38,39.38,0,0,1-5.27-1.72,9.3,9.3,0,0,1-3.49-2.6,6.74,6.74,0,0,1-1.46-4.53,6.85,6.85,0,0,1,1.32-4.08,9,9,0,0,1,3.76-2.94,13.42,13.42,0,0,1,5.56-1.09,11.84,11.84,0,0,1,7.78,2.44,8.76,8.76,0,0,1,3.18,6.67h-4.82a5,5,0,0,0-1.82-3.65,6.81,6.81,0,0,0-4.48-1.38,6.92,6.92,0,0,0-4.13,1.11,3.45,3.45,0,0,0-1.53,2.92,3.2,3.2,0,0,0,.92,2.35,6.81,6.81,0,0,0,2.33,1.49,38.37,38.37,0,0,0,3.89,1.24,42.05,42.05,0,0,1,5.09,1.68,8.82,8.82,0,0,1,3.36,2.46,6.59,6.59,0,0,1,1.45,4.29,7.36,7.36,0,0,1-1.32,4.29,8.7,8.7,0,0,1-3.73,3,13.42,13.42,0,0,1-5.54,1.08A14.83,14.83,0,0,1,503.25,791.49Z"/><path class="cls-1" d="M530.89,791.49a10,10,0,0,1-4.18-3.17,8.47,8.47,0,0,1-1.7-4.69h5a4.9,4.9,0,0,0,2,3.55,7.73,7.73,0,0,0,4.79,1.37,7,7,0,0,0,4.34-1.21,3.74,3.74,0,0,0,1.59-3.08,3,3,0,0,0-1.7-2.83,23.31,23.31,0,0,0-5.24-1.83,39.18,39.18,0,0,1-5.26-1.72,9.42,9.42,0,0,1-3.5-2.6,6.79,6.79,0,0,1-1.46-4.53,6.86,6.86,0,0,1,1.33-4.08,8.86,8.86,0,0,1,3.76-2.94,13.42,13.42,0,0,1,5.56-1.09,11.84,11.84,0,0,1,7.78,2.44,8.76,8.76,0,0,1,3.18,6.67h-4.82a5,5,0,0,0-1.83-3.65,6.79,6.79,0,0,0-4.47-1.38,6.9,6.9,0,0,0-4.13,1.11,3.44,3.44,0,0,0-1.54,2.92,3.16,3.16,0,0,0,.93,2.35,6.72,6.72,0,0,0,2.33,1.49,38.37,38.37,0,0,0,3.89,1.24,41.82,41.82,0,0,1,5.08,1.68A8.78,8.78,0,0,1,546,780a6.59,6.59,0,0,1,1.45,4.29,7.36,7.36,0,0,1-1.32,4.29,8.73,8.73,0,0,1-3.74,3,13.37,13.37,0,0,1-5.53,1.08A14.83,14.83,0,0,1,530.89,791.49Z"/><path class="cls-1" d="M572.66,791.49a10,10,0,0,1-4.18-3.17,8.55,8.55,0,0,1-1.7-4.69h5a4.9,4.9,0,0,0,2,3.55,7.73,7.73,0,0,0,4.79,1.37,7,7,0,0,0,4.34-1.21,3.74,3.74,0,0,0,1.59-3.08,3,3,0,0,0-1.69-2.83,23.62,23.62,0,0,0-5.25-1.83,39.18,39.18,0,0,1-5.26-1.72,9.42,9.42,0,0,1-3.5-2.6,7.38,7.38,0,0,1-.13-8.61,8.92,8.92,0,0,1,3.76-2.94,13.39,13.39,0,0,1,5.56-1.09,11.84,11.84,0,0,1,7.78,2.44,8.76,8.76,0,0,1,3.18,6.67h-4.82a5,5,0,0,0-1.83-3.65,6.79,6.79,0,0,0-4.47-1.38,6.9,6.9,0,0,0-4.13,1.11,3.45,3.45,0,0,0-1.53,2.92,3.16,3.16,0,0,0,.92,2.35,6.81,6.81,0,0,0,2.33,1.49,37.55,37.55,0,0,0,3.89,1.24,41.24,41.24,0,0,1,5.08,1.68,8.78,8.78,0,0,1,3.37,2.46,6.59,6.59,0,0,1,1.45,4.29,7.36,7.36,0,0,1-1.32,4.29,8.82,8.82,0,0,1-3.73,3,13.42,13.42,0,0,1-5.54,1.08A14.8,14.8,0,0,1,572.66,791.49Z"/><path class="cls-1" d="M601.28,790.78a13.16,13.16,0,0,1-5.19-5.27,16.12,16.12,0,0,1-1.88-7.93,15.72,15.72,0,0,1,1.93-7.87,13.34,13.34,0,0,1,5.27-5.24,16.14,16.14,0,0,1,14.93,0,13.42,13.42,0,0,1,5.27,5.22,15.74,15.74,0,0,1,1.93,7.89,15.44,15.44,0,0,1-2,7.93,13.73,13.73,0,0,1-5.37,5.27,15.35,15.35,0,0,1-7.52,1.85A14.76,14.76,0,0,1,601.28,790.78Zm12.25-3.6a9.31,9.31,0,0,0,3.68-3.66,11.66,11.66,0,0,0,1.4-5.94,11.85,11.85,0,0,0-1.37-5.93,9,9,0,0,0-3.6-3.63,10.32,10.32,0,0,0-9.66,0,8.71,8.71,0,0,0-3.53,3.63,12.29,12.29,0,0,0-1.32,5.93,12.54,12.54,0,0,0,1.3,6,8.53,8.53,0,0,0,3.47,3.63,9.64,9.64,0,0,0,4.76,1.19A10.16,10.16,0,0,0,613.53,787.18Z"/><path class="cls-1" d="M641.7,767.09h-6.09v25.07h-4.82V767.09H627v-4h3.76v-2.07q0-4.87,2.51-7.13t8.08-2.25v4c-2.12,0-3.61.41-4.48,1.24a5.53,5.53,0,0,0-1.29,4.11v2.07h6.09Z"/><path class="cls-1" d="M653.18,767.09v17.12a4.06,4.06,0,0,0,.9,3,4.42,4.42,0,0,0,3.13.88h3.55v4.08h-4.34q-4,0-6-1.86t-2-6.09V767.09h-3.76v-4h3.76V755.8h4.81v7.32h7.58v4Z"/><path class="cls-1" d="M705.23,763.12l-9.06,29h-5l-7-23.06-7,23.06h-5l-9.11-29h4.92l6.67,24.37,7.2-24.37h4.93l7,24.43,6.56-24.43Z"/><path class="cls-1" d="M710,769.71a13.11,13.11,0,0,1,5-5.22,13.64,13.64,0,0,1,7-1.85,12.89,12.89,0,0,1,6.61,1.64,11,11,0,0,1,4.19,4.13v-5.29h4.87v29h-4.87v-5.41A11.43,11.43,0,0,1,728.5,791a12.78,12.78,0,0,1-6.59,1.66,13.2,13.2,0,0,1-7-1.9,13.41,13.41,0,0,1-4.92-5.35,16.73,16.73,0,0,1-1.8-7.85A16.35,16.35,0,0,1,710,769.71Zm21.44,2.15a9.4,9.4,0,0,0-3.57-3.74,10.08,10.08,0,0,0-9.87,0,9.15,9.15,0,0,0-3.55,3.71,11.82,11.82,0,0,0-1.32,5.72,12.15,12.15,0,0,0,1.32,5.81A9.35,9.35,0,0,0,718,787.1a9.61,9.61,0,0,0,4.92,1.29,9.78,9.78,0,0,0,5-1.29,9.33,9.33,0,0,0,3.57-3.76,12,12,0,0,0,1.33-5.76A11.73,11.73,0,0,0,731.43,771.86Z"/><path class="cls-1" d="M754.23,764a11.16,11.16,0,0,1,5.74-1.37v5H758.7q-8.1,0-8.1,8.8v15.79h-4.82v-29h4.82v4.71A9.29,9.29,0,0,1,754.23,764Z"/><path class="cls-1" d="M791.84,779.44H768.65a9.12,9.12,0,0,0,9.43,9.11,8.89,8.89,0,0,0,5.21-1.45,7.7,7.7,0,0,0,2.94-3.9h5.19a12.51,12.51,0,0,1-4.66,6.81,14,14,0,0,1-8.68,2.62,14.61,14.61,0,0,1-7.39-1.85,13.17,13.17,0,0,1-5.11-5.27,16.33,16.33,0,0,1-1.85-7.93,16.58,16.58,0,0,1,1.8-7.89,12.61,12.61,0,0,1,5.06-5.22,15,15,0,0,1,7.49-1.83,14.55,14.55,0,0,1,7.3,1.8,12.5,12.5,0,0,1,4.9,5,14.68,14.68,0,0,1,1.72,7.12A27.45,27.45,0,0,1,791.84,779.44Zm-6-8.67a8,8,0,0,0-3.31-3,10.32,10.32,0,0,0-4.63-1,9,9,0,0,0-6.23,2.33,9.54,9.54,0,0,0-2.94,6.47H787A9,9,0,0,0,785.81,770.77Z"/></g><g id="Dot"><rect class="cls-2" x="2336.56" y="680.29" width="46.82" height="46.82" rx="5.83"/></g><g id="Wortmarke"><path class="cls-1" d="M264.18,727.07H200.6a9.26,9.26,0,0,1-9.27-9.26V617.16a4.88,4.88,0,0,0-4.88-4.88H149.59a4.89,4.89,0,0,0-4.89,4.88V717.81a9.25,9.25,0,0,1-9.26,9.26H71.85a9.26,9.26,0,0,1-9.26-9.26V417.86a9.27,9.27,0,0,1,9.26-9.26h63.59a9.26,9.26,0,0,1,9.26,9.26v102a3.44,3.44,0,0,0,6.68,1.15L189.21,414.9a9.27,9.27,0,0,1,8.78-6.3H259.7a9.26,9.26,0,0,1,8.68,12.5L220.83,548.51l5.18-.4c23.52,0,47.43,19.53,47.43,48.22V717.81A9.25,9.25,0,0,1,264.18,727.07Z"/><path class="cls-1" d="M511.8,727.07H448.21a9.26,9.26,0,0,1-9.26-9.26V650.64a9.26,9.26,0,0,0-9.26-9.27H395.6a9.27,9.27,0,0,0-9.26,9.27v67.17a9.26,9.26,0,0,1-9.26,9.26H313.49a9.26,9.26,0,0,1-9.26-9.26v-257c0-37.86,19.93-52.21,56.2-52.21H511.8a9.26,9.26,0,0,1,9.26,9.26V717.81A9.25,9.25,0,0,1,511.8,727.07ZM439,569.23V490.81a9.26,9.26,0,0,0-9.26-9.27H395.6a9.27,9.27,0,0,0-9.26,9.27v78.42Z"/><path class="cls-1" d="M782.53,727.07H728.61a9.26,9.26,0,0,1-8-4.65L656.84,611.34c-4.73-8.24-17.3-4.88-17.3,4.61V717.81a9.26,9.26,0,0,1-9.26,9.26H566.69a9.26,9.26,0,0,1-9.26-9.26V417.86a9.27,9.27,0,0,1,9.26-9.26h57.15a9.25,9.25,0,0,1,8,4.62l60.56,104.63c4.75,8.2,17.28,4.83,17.28-4.64V417.86A9.27,9.27,0,0,1,719,408.6h63.58a9.27,9.27,0,0,1,9.27,9.26V717.81A9.26,9.26,0,0,1,782.53,727.07Z"/><path class="cls-1" d="M1410.78,727.07h-63.59a9.26,9.26,0,0,1-9.26-9.26V417.86a9.27,9.27,0,0,1,9.26-9.26h63.59a9.26,9.26,0,0,1,9.26,9.26V717.81A9.25,9.25,0,0,1,1410.78,727.07Z"/><path class="cls-1" d="M1681.52,727.07h-53.94a9.25,9.25,0,0,1-8-4.65L1555.79,611.3c-4.72-8.22-17.27-4.87-17.27,4.6V717.82a9.26,9.26,0,0,1-9.26,9.25h-63.6a9.25,9.25,0,0,1-9.25-9.25v-300a9.25,9.25,0,0,1,9.25-9.25h57.16a9.26,9.26,0,0,1,8,4.62l60.58,104.67c4.74,8.19,17.26,4.82,17.26-4.64v-95.4a9.25,9.25,0,0,1,9.25-9.25h63.6a9.25,9.25,0,0,1,9.25,9.25v300A9.25,9.25,0,0,1,1681.52,727.07Z"/><path class="cls-1" d="M1913.18,676.85c0,36.67-19.92,50.22-55.8,50.22H1732.3a9.25,9.25,0,0,1-9.24-9.25V663.38a9.25,9.25,0,0,1,9.24-9.25h89.52a9.25,9.25,0,0,0,9.25-9.25V612.36a9.25,9.25,0,0,0-9.25-9.25h-43.36c-45,0-55.4-21.92-55.4-49.82V460.81c0-37.86,19.53-52.21,55.8-52.21H1896a9.25,9.25,0,0,1,9.25,9.25V472.3a9.25,9.25,0,0,1-9.25,9.24h-81.55a9.25,9.25,0,0,0-9.24,9.25v30.13a9.25,9.25,0,0,0,9.24,9.25H1857a56.2,56.2,0,0,1,56.2,56.2Z"/><path class="cls-1" d="M2143.07,727.07h-63.59a9.26,9.26,0,0,1-9.26-9.26V621.54a9.26,9.26,0,0,0-9.26-9.26h-28.11a9.25,9.25,0,0,0-9.26,9.26v96.27a9.26,9.26,0,0,1-9.27,9.26h-63.58a9.25,9.25,0,0,1-9.26-9.26V417.86a9.26,9.26,0,0,1,9.26-9.26h63.58a9.27,9.27,0,0,1,9.27,9.26V519.44a3.51,3.51,0,0,0,6.81,1.18l37.69-105.72a9.28,9.28,0,0,1,8.78-6.3h61.72a9.26,9.26,0,0,1,8.68,12.5l-47.55,127.41,5.18-.4c23.51,0,47.43,19.53,47.43,48.22V717.81A9.26,9.26,0,0,1,2143.07,727.07Z"/><path class="cls-1" d="M2385.5,560.86c0,37.87-20.33,51.42-56.6,51.42h-1.1a9.25,9.25,0,0,0-9.26,9.26v96.27a9.26,9.26,0,0,1-9.27,9.26h-63.58a9.26,9.26,0,0,1-9.26-9.26V621.54a9.26,9.26,0,0,0-9.26-9.26h-2.7c-36.27,0-55.8-13.55-55.8-51.42v-143a9.27,9.27,0,0,1,9.26-9.26h63.58a9.27,9.27,0,0,1,9.27,9.26V530.07a9.26,9.26,0,0,0,9.26,9.27h34.09a9.27,9.27,0,0,0,9.26-9.27V417.86a9.27,9.27,0,0,1,9.26-9.26h63.58a9.27,9.27,0,0,1,9.27,9.26Z"/></g><g id="Bildmarke"><path id="Inline_Lage_D" data-name="Inline Lage D" class="cls-3" d="M987.68,271l.09,67.15c127.64,0,234.82,104.44,233.53,232.07-1.26,125-104.47,227.44-229.74,227.44h-4.08v67.17a9.41,9.41,0,0,0,9.68,9.26c171.08,0,312.58-153.82,299.93-328.47-11.42-157.6-142.76-279.1-299.77-283.9A9.3,9.3,0,0,0,987.68,271Z"/><path id="Inline_Middle_D" data-name="Inline Middle D" class="cls-2" d="M991.56,797.65h0c125.27,0,228.48-102.45,229.74-227.44,1.29-127.63-105.89-232.07-233.53-232.07h-67.6a9.28,9.28,0,0,0-9.28,9.28v67.31H988.6c80.79,0,149.86,61.4,155.72,142,6.48,89-65,164.37-152.76,164.37H910.89v65a11.57,11.57,0,0,0,11.58,11.58h69.09Z"/><path id="Inline_Small_D" data-name="Inline Small D" class="cls-4" d="M991.56,721.07c87.73,0,159.24-75.38,152.76-164.37-5.87-80.57-74.94-142-155.72-142H844.14a9.25,9.25,0,0,0-9.26,9.26v58.06a9.26,9.26,0,0,0,9.26,9.26H991.56c42,0,76.58,34.57,76.58,76.59s-34.57,76.58-76.58,76.58h-41.8a9.27,9.27,0,0,1-9.26-9.26V538.87a9.27,9.27,0,0,0-9.26-9.27H873.18a9.26,9.26,0,0,0-9.26,9.27V711.8a9.26,9.26,0,0,0,9.26,9.27H991.56Z"/><path id="Outline_Medium_D" data-name="Outline Medium D" class="cls-1" d="M991.56,804H922.47a18,18,0,0,1-18-18V714.68h87a147.24,147.24,0,0,0,107.35-47.11c28.16-30.28,42-69.49,39-110.41-5.55-76.29-71.15-136-149.35-136H904.51V347.42a15.68,15.68,0,0,1,15.66-15.66h67.6c63.75,0,126.27,26.22,171.54,71.95,44.72,45.17,69,104.33,68.37,166.57C1226.38,699.17,1120.46,804,991.56,804Zm-74.29-76.58v58.62a5.2,5.2,0,0,0,5.2,5.2h69.09c121.93,0,222.13-99.2,223.36-221.12.59-58.81-22.38-114.73-64.69-157.46-42.88-43.32-102.1-68.17-162.46-68.17h-67.6a2.9,2.9,0,0,0-2.9,2.9v60.92H988.6c84.85,0,156.05,65,162.09,147.89,3.23,44.5-11.84,87.12-42.43,120a160.06,160.06,0,0,1-116.7,51.19Z"/><path id="Outline_Large_D" data-name="Outline Large D" class="cls-1" d="M997.17,880.46a15.88,15.88,0,0,1-16.08-15.64V791.26h10.48c121.92,0,222.12-99.2,223.35-221.12.59-58.81-22.38-114.73-64.69-157.46-42.88-43.32-102.1-68.17-162.46-68.17h-6.38L981.3,271A15.47,15.47,0,0,1,986,259.77a16,16,0,0,1,11.49-4.44,318.54,318.54,0,0,1,208.65,86.38c57.13,53.72,91.67,126,97.29,203.44,6.21,85.83-24.58,172-84.49,236.41C1160.5,844.41,1079.66,880.46,997.17,880.46ZM993.86,804v60.8a3.06,3.06,0,0,0,3.31,2.88c78.95,0,156.39-34.57,212.45-94.83,57.51-61.82,87.07-144.49,81.1-226.8-5.38-74.27-38.51-143.54-93.29-195.06a305.75,305.75,0,0,0-200.3-82.92,2.94,2.94,0,0,0-2.2.84,2.77,2.77,0,0,0-.87,2.05l.08,60.87c61.53,1.68,121.41,27.66,165.17,71.86,44.72,45.17,69,104.33,68.37,166.57C1226.39,698.41,1121.72,802.79,993.86,804Z"/><path id="Outline_small_D" data-name="Outline small D" class="cls-1" d="M991.56,727.45H873.18a15.67,15.67,0,0,1-15.65-15.65V538.87a15.67,15.67,0,0,1,15.65-15.65h58.06a15.66,15.66,0,0,1,15.64,15.65v96.35a2.89,2.89,0,0,0,2.88,2.88h41.8a70.21,70.21,0,0,0,0-140.41H844.14a15.65,15.65,0,0,1-15.64-15.64V424a15.66,15.66,0,0,1,15.64-15.65H988.6c84.85,0,156.05,65,162.09,147.89,3.23,44.5-11.84,87.12-42.43,120A160.06,160.06,0,0,1,991.56,727.45ZM873.18,536a2.88,2.88,0,0,0-2.88,2.88V711.8a2.88,2.88,0,0,0,2.88,2.88H991.56a147.24,147.24,0,0,0,107.35-47.11c28.16-30.28,42-69.49,39-110.41-5.55-76.29-71.15-136-149.35-136H844.14a2.88,2.88,0,0,0-2.88,2.88v58.06a2.88,2.88,0,0,0,2.88,2.88H991.56a83,83,0,0,1,0,165.93h-41.8a15.66,15.66,0,0,1-15.64-15.64V538.87a2.88,2.88,0,0,0-2.88-2.88Z"/></g></g></svg>