<svg xmlns="http://www.w3.org/2000/svg" viewBox="0 0 2436 1125"><defs><style>.cls-1{fill:#1c98c1;}.cls-2{fill:#333;}.cls-3{fill:#f28705;}.cls-4{fill:#fed060;}</style></defs><g id="Ebene_2" data-name="Ebene 2"><g id="Dot"><rect class="cls-1" x="2336.56" y="680.29" width="46.82" height="46.82" rx="5.83"/></g><g id="Wortmarke"><path class="cls-2" d="M264.18,727.07H200.6a9.26,9.26,0,0,1-9.27-9.26V617.16a4.88,4.88,0,0,0-4.88-4.88H149.59a4.89,4.89,0,0,0-4.89,4.88V717.81a9.25,9.25,0,0,1-9.26,9.26H71.85a9.26,9.26,0,0,1-9.26-9.26V417.86a9.27,9.27,0,0,1,9.26-9.26h63.59a9.26,9.26,0,0,1,9.26,9.26v102a3.44,3.44,0,0,0,6.68,1.15L189.21,414.9a9.27,9.27,0,0,1,8.78-6.3H259.7a9.26,9.26,0,0,1,8.68,12.5L220.83,548.51l5.18-.4c23.52,0,47.43,19.53,47.43,48.22V717.81A9.25,9.25,0,0,1,264.18,727.07Z"/><path class="cls-2" d="M511.8,727.07H448.21a9.26,9.26,0,0,1-9.26-9.26V650.64a9.26,9.26,0,0,0-9.26-9.27H395.6a9.27,9.27,0,0,0-9.26,9.27v67.17a9.26,9.26,0,0,1-9.26,9.26H313.49a9.26,9.26,0,0,1-9.26-9.26v-257c0-37.86,19.93-52.21,56.2-52.21H511.8a9.26,9.26,0,0,1,9.26,9.26V717.81A9.25,9.25,0,0,1,511.8,727.07ZM439,569.23V490.81a9.26,9.26,0,0,0-9.26-9.27H395.6a9.27,9.27,0,0,0-9.26,9.27v78.42Z"/><path class="cls-2" d="M782.53,727.07H728.61a9.26,9.26,0,0,1-8-4.65L656.84,611.34c-4.73-8.24-17.3-4.88-17.3,4.61V717.81a9.26,9.26,0,0,1-9.26,9.26H566.69a9.26,9.26,0,0,1-9.26-9.26V417.86a9.27,9.27,0,0,1,9.26-9.26h57.15a9.25,9.25,0,0,1,8,4.62l60.56,104.63c4.75,8.2,17.28,4.83,17.28-4.64V417.86A9.27,9.27,0,0,1,719,408.6h63.58a9.27,9.27,0,0,1,9.27,9.26V717.81A9.26,9.26,0,0,1,782.53,727.07Z"/><path class="cls-2" d="M1410.78,727.07h-63.59a9.26,9.26,0,0,1-9.26-9.26V417.86a9.27,9.27,0,0,1,9.26-9.26h63.59a9.26,9.26,0,0,1,9.26,9.26V717.81A9.25,9.25,0,0,1,1410.78,727.07Z"/><path class="cls-2" d="M1681.52,727.07h-53.94a9.25,9.25,0,0,1-8-4.65L1555.79,611.3c-4.72-8.22-17.27-4.87-17.27,4.6V717.82a9.26,9.26,0,0,1-9.26,9.25h-63.6a9.25,9.25,0,0,1-9.25-9.25v-300a9.25,9.25,0,0,1,9.25-9.25h57.16a9.26,9.26,0,0,1,8,4.62l60.58,104.67c4.74,8.19,17.26,4.82,17.26-4.64v-95.4a9.25,9.25,0,0,1,9.25-9.25h63.6a9.25,9.25,0,0,1,9.25,9.25v300A9.25,9.25,0,0,1,1681.52,727.07Z"/><path class="cls-2" d="M1913.18,676.85c0,36.67-19.92,50.22-55.8,50.22H1732.3a9.25,9.25,0,0,1-9.24-9.25V663.38a9.25,9.25,0,0,1,9.24-9.25h89.52a9.25,9.25,0,0,0,9.25-9.25V612.36a9.25,9.25,0,0,0-9.25-9.25h-43.36c-45,0-55.4-21.92-55.4-49.82V460.81c0-37.86,19.53-52.21,55.8-52.21H1896a9.25,9.25,0,0,1,9.25,9.25V472.3a9.25,9.25,0,0,1-9.25,9.24h-81.55a9.25,9.25,0,0,0-9.24,9.25v30.13a9.25,9.25,0,0,0,9.24,9.25H1857a56.2,56.2,0,0,1,56.2,56.2Z"/><path class="cls-2" d="M2143.07,727.07h-63.59a9.26,9.26,0,0,1-9.26-9.26V621.54a9.26,9.26,0,0,0-9.26-9.26h-28.11a9.25,9.25,0,0,0-9.26,9.26v96.27a9.26,9.26,0,0,1-9.27,9.26h-63.58a9.25,9.25,0,0,1-9.26-9.26V417.86a9.26,9.26,0,0,1,9.26-9.26h63.58a9.27,9.27,0,0,1,9.27,9.26V519.44a3.51,3.51,0,0,0,6.81,1.18l37.69-105.72a9.28,9.28,0,0,1,8.78-6.3h61.72a9.26,9.26,0,0,1,8.68,12.5l-47.55,127.41,5.18-.4c23.51,0,47.43,19.53,47.43,48.22V717.81A9.26,9.26,0,0,1,2143.07,727.07Z"/><path class="cls-2" d="M2385.5,560.86c0,37.87-20.33,51.42-56.6,51.42h-1.1a9.25,9.25,0,0,0-9.26,9.26v96.27a9.26,9.26,0,0,1-9.27,9.26h-63.58a9.26,9.26,0,0,1-9.26-9.26V621.54a9.26,9.26,0,0,0-9.26-9.26h-2.7c-36.27,0-55.8-13.55-55.8-51.42v-143a9.27,9.27,0,0,1,9.26-9.26h63.58a9.27,9.27,0,0,1,9.27,9.26V530.07a9.26,9.26,0,0,0,9.26,9.27h34.09a9.27,9.27,0,0,0,9.26-9.27V417.86a9.27,9.27,0,0,1,9.26-9.26h63.58a9.27,9.27,0,0,1,9.27,9.26Z"/></g><g id="Bildmarke"><path id="Inline_Lage_D" data-name="Inline Lage D" class="cls-3" d="M987.68,271l.09,67.15c127.64,0,234.82,104.44,233.53,232.07-1.26,125-104.47,227.44-229.74,227.44h-4.08v67.17a9.41,9.41,0,0,0,9.68,9.26c171.08,0,312.58-153.82,299.93-328.47-11.42-157.6-142.76-279.1-299.77-283.9A9.3,9.3,0,0,0,987.68,271Z"/><path id="Inline_Middle_D" data-name="Inline Middle D" class="cls-1" d="M991.56,797.65h0c125.27,0,228.48-102.45,229.74-227.44,1.29-127.63-105.89-232.07-233.53-232.07h-67.6a9.28,9.28,0,0,0-9.28,9.28v67.31H988.6c80.79,0,149.86,61.4,155.72,142,6.48,89-65,164.37-152.76,164.37H910.89v65a11.57,11.57,0,0,0,11.58,11.58h69.09Z"/><path id="Inline_Small_D" data-name="Inline Small D" class="cls-4" d="M991.56,721.07c87.73,0,159.24-75.38,152.76-164.37-5.87-80.57-74.94-142-155.72-142H844.14a9.25,9.25,0,0,0-9.26,9.26v58.06a9.26,9.26,0,0,0,9.26,9.26H991.56c42,0,76.58,34.57,76.58,76.59s-34.57,76.58-76.58,76.58h-41.8a9.27,9.27,0,0,1-9.26-9.26V538.87a9.27,9.27,0,0,0-9.26-9.27H873.18a9.26,9.26,0,0,0-9.26,9.27V711.8a9.26,9.26,0,0,0,9.26,9.27H991.56Z"/><path id="Outline_Medium_D" data-name="Outline Medium D" class="cls-2" d="M991.56,804H922.47a18,18,0,0,1-18-18V714.68h87a147.24,147.24,0,0,0,107.35-47.11c28.16-30.28,42-69.49,39-110.41-5.55-76.29-71.15-136-149.35-136H904.51V347.42a15.68,15.68,0,0,1,15.66-15.66h67.6c63.75,0,126.27,26.22,171.54,71.95,44.72,45.17,69,104.33,68.37,166.57C1226.38,699.17,1120.46,804,991.56,804Zm-74.29-76.58v58.62a5.2,5.2,0,0,0,5.2,5.2h69.09c121.93,0,222.13-99.2,223.36-221.12.59-58.81-22.38-114.73-64.69-157.46-42.88-43.32-102.1-68.17-162.46-68.17h-67.6a2.9,2.9,0,0,0-2.9,2.9v60.92H988.6c84.85,0,156.05,65,162.09,147.89,3.23,44.5-11.84,87.12-42.43,120a160.06,160.06,0,0,1-116.7,51.19Z"/><path id="Outline_Large_D" data-name="Outline Large D" class="cls-2" d="M997.17,880.46a15.88,15.88,0,0,1-16.08-15.64V791.26h10.48c121.92,0,222.12-99.2,223.35-221.12.59-58.81-22.38-114.73-64.69-157.46-42.88-43.32-102.1-68.17-162.46-68.17h-6.38L981.3,271A15.47,15.47,0,0,1,986,259.77a16,16,0,0,1,11.49-4.44,318.54,318.54,0,0,1,208.65,86.38c57.13,53.72,91.67,126,97.29,203.44,6.21,85.83-24.58,172-84.49,236.41C1160.5,844.41,1079.66,880.46,997.17,880.46ZM993.86,804v60.8a3.06,3.06,0,0,0,3.31,2.88c78.95,0,156.39-34.57,212.45-94.83,57.51-61.82,87.07-144.49,81.1-226.8-5.38-74.27-38.51-143.54-93.29-195.06a305.75,305.75,0,0,0-200.3-82.92,2.94,2.94,0,0,0-2.2.84,2.77,2.77,0,0,0-.87,2.05l.08,60.87c61.53,1.68,121.41,27.66,165.17,71.86,44.72,45.17,69,104.33,68.37,166.57C1226.39,698.41,1121.72,802.79,993.86,804Z"/><path id="Outline_small_D" data-name="Outline small D" class="cls-2" d="M991.56,727.45H873.18a15.67,15.67,0,0,1-15.65-15.65V538.87a15.67,15.67,0,0,1,15.65-15.65h58.06a15.66,15.66,0,0,1,15.64,15.65v96.35a2.89,2.89,0,0,0,2.88,2.88h41.8a70.21,70.21,0,0,0,0-140.41H844.14a15.65,15.65,0,0,1-15.64-15.64V424a15.66,15.66,0,0,1,15.64-15.65H988.6c84.85,0,156.05,65,162.09,147.89,3.23,44.5-11.84,87.12-42.43,120A160.06,160.06,0,0,1,991.56,727.45ZM873.18,536a2.88,2.88,0,0,0-2.88,2.88V711.8a2.88,2.88,0,0,0,2.88,2.88H991.56a147.24,147.24,0,0,0,107.35-47.11c28.16-30.28,42-69.49,39-110.41-5.55-76.29-71.15-136-149.35-136H844.14a2.88,2.88,0,0,0-2.88,2.88v58.06a2.88,2.88,0,0,0,2.88,2.88H991.56a83,83,0,0,1,0,165.93h-41.8a15.66,15.66,0,0,1-15.64-15.64V538.87a2.88,2.88,0,0,0-2.88-2.88Z"/></g></g></svg>