<svg version="1.1" viewBox="0 0 268.12 66.934" xml:space="preserve" xmlns="http://www.w3.org/2000/svg">
<style type="text/css">
	.st0{fill:#009FE3;}
</style>

<g transform="translate(-7.67 -23.217)">
	
		
			<path class="st0" d="m16.85 87.62c-2.84-1.7-5.08-4.03-6.72-6.98s-2.46-6.21-2.46-9.78c0-3.53 0.82-6.77 2.46-9.7 1.64-2.94 3.88-5.26 6.72-6.98s5.98-2.58 9.41-2.58c2.44 0 4.55 0.32 6.33 0.96s3.59 1.7 5.42 3.18c0.39 0.29 0.64 0.59 0.77 0.89s0.19 0.67 0.19 1.08c0 0.64-0.23 1.17-0.7 1.59-0.46 0.42-1 0.63-1.61 0.63s-1.17-0.21-1.69-0.63c-1.32-1.12-2.6-1.93-3.85-2.43s-2.87-0.75-4.86-0.75c-2.5 0-4.81 0.66-6.91 1.97s-3.77 3.11-5.01 5.37-1.85 4.73-1.85 7.39c0 2.7 0.62 5.17 1.85 7.42 1.24 2.25 2.91 4.03 5.01 5.34 2.1 1.32 4.41 1.97 6.91 1.97 3.08 0 6.04-1.06 8.86-3.18 0.54-0.38 1.08-0.58 1.59-0.58 0.61 0 1.12 0.22 1.52 0.65s0.6 1 0.6 1.71c0 0.67-0.26 1.27-0.77 1.78-3.47 2.79-7.4 4.19-11.8 4.19-3.43 0.02-6.57-0.83-9.41-2.53z"/>
			<path class="st0" d="m48.01 88.56c-1.11-0.75-1.97-1.81-2.58-3.18-0.61-1.36-0.91-2.9-0.91-4.6v-26.29c0-0.71 0.22-1.28 0.67-1.73s1.03-0.67 1.73-0.67 1.28 0.23 1.73 0.67c0.45 0.45 0.67 1.03 0.67 1.73v26.29c0 1.19 0.22 2.17 0.67 2.94s1.03 1.16 1.73 1.16h1.2c0.64 0 1.16 0.22 1.56 0.67s0.6 1.03 0.6 1.73-0.31 1.28-0.92 1.73-1.4 0.67-2.36 0.67h-0.1c-1.34 0.01-2.59-0.37-3.69-1.12z"/>
			<path class="st0" d="m64.06 88.17c-2.02-1.14-3.6-2.72-4.72-4.74s-1.69-4.32-1.69-6.89c0-2.6 0.56-4.91 1.69-6.93 1.12-2.02 2.7-3.6 4.72-4.74s4.32-1.71 6.89-1.71c2.54 0 4.81 0.57 6.81 1.71 2.01 1.14 3.58 2.72 4.72 4.74s1.71 4.33 1.71 6.93c0 2.57-0.56 4.86-1.69 6.89s-2.69 3.6-4.69 4.74c-2.01 1.14-4.29 1.71-6.86 1.71s-4.87-0.57-6.89-1.71zm11.29-3.78c1.3-0.77 2.31-1.84 3.03-3.2s1.08-2.91 1.08-4.65c0-1.73-0.36-3.29-1.08-4.67s-1.73-2.46-3.03-3.23-2.77-1.16-4.41-1.16-3.11 0.39-4.41 1.16-2.32 1.85-3.06 3.23-1.11 2.94-1.11 4.67 0.37 3.28 1.11 4.65 1.76 2.43 3.06 3.2 2.77 1.16 4.41 1.16 3.11-0.39 4.41-1.16z"/>
			<path class="st0" d="m114.37 63.97c0.45 0.45 0.67 1.04 0.67 1.78v21.48c0 0.71-0.23 1.29-0.67 1.76-0.45 0.47-1.04 0.7-1.78 0.7-0.71 0-1.29-0.23-1.76-0.7-0.47-0.46-0.7-1.05-0.7-1.76v-0.53c-1.03 1.03-2.25 1.82-3.66 2.38s-2.92 0.84-4.53 0.84c-2.21 0-4.21-0.48-5.97-1.45-1.77-0.96-3.15-2.37-4.14-4.21-1-1.85-1.49-4.07-1.49-6.67v-11.83c0-0.71 0.23-1.29 0.7-1.76 0.46-0.46 1.05-0.7 1.76-0.7s1.29 0.23 1.76 0.7c0.46 0.46 0.7 1.05 0.7 1.76v11.84c0 2.6 0.7 4.57 2.09 5.9s3.25 2 5.56 2c1.35 0 2.58-0.27 3.68-0.82 1.11-0.54 1.97-1.28 2.6-2.21s0.94-1.97 0.94-3.13v-13.58c0-0.74 0.23-1.33 0.7-1.78 0.46-0.45 1.05-0.67 1.76-0.67 0.74-0.01 1.34 0.21 1.78 0.66z"/>
			<path class="st0" d="m147.59 52.75c0.45 0.45 0.67 1.04 0.67 1.78v21.96c0 2.5-0.59 4.78-1.76 6.81-1.17 2.04-2.76 3.64-4.77 4.82-2.01 1.17-4.25 1.76-6.72 1.76s-4.73-0.58-6.77-1.76c-2.04-1.17-3.63-2.78-4.79-4.82s-1.73-4.31-1.73-6.81 0.54-4.78 1.61-6.81c1.08-2.04 2.55-3.63 4.43-4.79s3.97-1.73 6.28-1.73c1.86 0 3.59 0.39 5.2 1.16 1.6 0.77 2.97 1.85 4.09 3.23v-13c0-0.74 0.23-1.33 0.7-1.78 0.46-0.45 1.05-0.67 1.76-0.67 0.76-0.02 1.35 0.2 1.8 0.65zm-8.21 31.62c1.3-0.79 2.32-1.87 3.06-3.25s1.11-2.92 1.11-4.62-0.37-3.23-1.11-4.6c-0.74-1.36-1.76-2.44-3.06-3.23s-2.75-1.18-4.36-1.18-3.06 0.39-4.36 1.18-2.33 1.86-3.08 3.23-1.13 2.9-1.13 4.6 0.38 3.24 1.13 4.62 1.78 2.46 3.08 3.25 2.75 1.18 4.36 1.18 3.06-0.4 4.36-1.18z"/>
			<path class="st0" d="m146.59 49.28c-1.74-13.94-12.97-24.79-27.07-25.96-13.97-1.16-26.79 7.56-30.91 20.85-0.52-0.08-1.01-0.14-1.5-0.18-3.7-0.31-7.43 0.32-10.86 1.8-2.12-2.23-4.93-3.58-8.02-3.83-2.43-0.2-4.82 0.3-6.96 1.45-3.79-3.8-8.76-6.12-14.1-6.56-9.13-0.76-17.64 3.98-21.84 11.94 0.3-0.01 0.61-0.03 0.92-0.03 0.63 0 1.23 0.03 1.83 0.06 3.93-6.45 11.16-10.22 18.9-9.58 5.06 0.42 9.75 2.73 13.2 6.5l0.68 0.75 0.85-0.55c1.9-1.22 4.08-1.77 6.32-1.59 2.75 0.23 5.23 1.53 6.98 3.67l0.6 0.73 0.85-0.41c3.26-1.58 6.87-2.25 10.44-1.95 0.72 0.06 1.47 0.17 2.31 0.34l1.1 0.22 0.29-1.09c3.44-12.77 15.51-21.24 28.69-20.14 12.93 1.08 23.22 11.01 24.85 23.79 0.52-0.16 1.06-0.26 1.64-0.26 0.27 0 0.53 0.04 0.79 0.07 0.03-0.03 0.03-0.04 0.02-0.04z"/>
			<path class="st0" d="m157.32 88.96c-0.47-0.48-0.7-1.08-0.7-1.78v-32.6c0-0.71 0.24-1.3 0.72-1.78s1.06-0.72 1.73-0.72c0.71 0 1.3 0.24 1.78 0.72s0.72 1.08 0.72 1.78v30.1h17.43c0.71 0 1.3 0.24 1.78 0.72s0.72 1.08 0.72 1.78-0.24 1.3-0.72 1.78-1.08 0.72-1.78 0.72h-19.93c-0.7 0.01-1.29-0.23-1.75-0.72z"/>
			<path class="st0" d="m204.49 64.91c2.01 1.17 3.59 2.78 4.77 4.82s1.76 4.31 1.76 6.81v10.74c0 0.71-0.23 1.29-0.7 1.76s-1.05 0.7-1.76 0.7-1.29-0.23-1.76-0.7c-0.47-0.46-0.7-1.05-0.7-1.76v-1.78c-1.12 1.38-2.49 2.46-4.09 3.23-1.61 0.77-3.34 1.16-5.2 1.16-2.31 0-4.41-0.58-6.28-1.73-1.88-1.16-3.35-2.75-4.43-4.79s-1.61-4.31-1.61-6.81 0.58-4.77 1.73-6.81c1.16-2.04 2.75-3.64 4.79-4.82 2.04-1.17 4.29-1.76 6.77-1.76s4.7 0.57 6.71 1.74zm-2.36 19.46c1.3-0.79 2.32-1.86 3.06-3.23 0.74-1.36 1.11-2.9 1.11-4.6s-0.37-3.24-1.11-4.62-1.76-2.46-3.06-3.25-2.75-1.18-4.36-1.18-3.06 0.39-4.36 1.18-2.33 1.87-3.08 3.25-1.13 2.92-1.13 4.62 0.38 3.24 1.13 4.6c0.75 1.37 1.78 2.44 3.08 3.23s2.75 1.18 4.36 1.18 3.06-0.4 4.36-1.18z"/>
			<path class="st0" d="m237.36 64.55c1.76 0.96 3.15 2.37 4.14 4.21 0.99 1.85 1.49 4.07 1.49 6.67v11.85c0 0.71-0.23 1.29-0.7 1.76s-1.05 0.7-1.76 0.7-1.29-0.23-1.76-0.7c-0.47-0.46-0.7-1.05-0.7-1.76v-11.85c0-2.6-0.7-4.57-2.09-5.9-1.4-1.33-3.25-2-5.56-2-1.35 0-2.58 0.27-3.68 0.82-1.11 0.55-1.97 1.29-2.6 2.21-0.63 0.93-0.94 1.97-0.94 3.13v13.58c0 0.71-0.22 1.29-0.67 1.76s-1.04 0.7-1.78 0.7c-0.71 0-1.29-0.23-1.76-0.7-0.47-0.46-0.7-1.05-0.7-1.76v-21.47c0-0.74 0.23-1.33 0.7-1.78 0.46-0.45 1.05-0.67 1.76-0.67 0.74 0 1.33 0.22 1.78 0.67s0.67 1.04 0.67 1.78v0.53c1.03-1.03 2.25-1.82 3.66-2.38s2.92-0.84 4.53-0.84c2.21 0 4.2 0.48 5.97 1.44z"/>
			<path class="st0" d="m275.12 52.75c0.45 0.45 0.67 1.04 0.67 1.78v21.96c0 2.5-0.59 4.78-1.76 6.81-1.17 2.04-2.76 3.64-4.77 4.82-2.01 1.17-4.25 1.76-6.72 1.76s-4.73-0.58-6.77-1.76c-2.04-1.17-3.63-2.78-4.79-4.82s-1.73-4.31-1.73-6.81 0.54-4.78 1.61-6.81c1.08-2.04 2.55-3.63 4.43-4.79s3.97-1.73 6.28-1.73c1.86 0 3.59 0.39 5.2 1.16 1.6 0.77 2.97 1.85 4.09 3.23v-13c0-0.74 0.23-1.33 0.7-1.78 0.46-0.45 1.05-0.67 1.76-0.67 0.75-0.02 1.35 0.2 1.8 0.65zm-8.21 31.62c1.3-0.79 2.32-1.87 3.06-3.25s1.11-2.92 1.11-4.62-0.37-3.23-1.11-4.6c-0.74-1.36-1.76-2.44-3.06-3.23s-2.75-1.18-4.36-1.18-3.06 0.39-4.36 1.18-2.33 1.86-3.08 3.23-1.13 2.9-1.13 4.6 0.38 3.24 1.13 4.62 1.78 2.46 3.08 3.25 2.75 1.18 4.36 1.18 3.06-0.4 4.36-1.18z"/>
		
	
</g>



</svg>
