<?xml version="1.0" encoding="UTF-8"?><svg id="Ebene_1" xmlns="http://www.w3.org/2000/svg" viewBox="0 0 100 50"><defs><style>.cls-1,.cls-2{fill:#00569d;}.cls-3{fill:#c7cb00;}.cls-2{fill-rule:evenodd;}</style></defs><path class="cls-3" d="m17.512,14.068l-.359,1.219c-.177.599-.968.409-.779-.227l.372-1.255c-.354-.175-.683-.421-.968-.736-1.205-1.336-1.146-3.415.133-4.645,1.279-1.23,3.292-1.143,4.498.192,1.082,1.199,1.145,2.997.221,4.242l1.868,2.016c.432.488-.128,1.092-.594.55l-1.836-1.981c-.741.598-1.678.802-2.557.623h0Zm-7.529,21.856l1.668-5.466c.171-.559.938-.325.765.243l-1.664,5.477c.366.176.707.427,1,.752.295.327.515.7.659,1.093l22.707-5.242c-.093-.98.238-1.986.984-2.703,1.279-1.23,3.292-1.143,4.498.192,1.205,1.336,1.146,3.415-.133,4.645-1.279,1.23-3.292,1.143-4.498-.193-.31-.343-.536-.735-.679-1.15l-22.693,5.24c.113.998-.216,2.031-.978,2.764-1.279,1.23-3.292,1.143-4.498-.192-1.205-1.336-1.146-3.416.133-4.645.758-.729,1.775-.996,2.728-.813h0Z"/><polygon class="cls-1" points="37.951 27.052 43.388 27.052 43.762 23.662 38.325 23.662 37.951 27.052 37.951 27.052"/><path class="cls-1" d="m42.332,40.289l1.731-.713c3.87-1.606,5.974-3.985,6.551-9.665l1.29-12.996h-6.585l-.305,3.034h2.139l-.883,9.189c-.441,4.461-1.459,7.018-5.499,8.476l1.561,2.676h0Z"/><path class="cls-2" d="m57.653,26.519c0-3.658,1.901-6.87,5.363-6.87.544,0,1.189.119,1.731.238-.271,4.223-3.327,9.308-5.669,9.308-.917,0-1.426-.982-1.426-2.677h0Zm10.353-9.249c-1.425-.387-3.021-.654-4.82-.654-5.601,0-10.217,3.628-10.217,10.349,0,3.985,2.139,5.8,5.092,5.8,2.851,0,5.465-1.873,6.924-6.216h.136c-.543,1.844-.882,3.926-1.12,5.918h6.178l.305-3.034h-2.138l.849-9.07c.102-1.011.271-2.082.543-3.093h-1.731Z"/><polygon class="cls-1" points="83.91 32.467 89.205 32.467 89.511 29.434 87.169 29.434 83.91 24.676 90.36 19.769 90.665 16.914 83.673 16.914 83.367 19.769 85.743 19.769 82.349 22.445 78.547 16.914 73.252 16.914 72.947 19.947 75.288 19.947 78.615 24.795 72.234 29.612 71.928 32.467 79.124 32.467 79.429 29.612 76.85 29.612 80.177 27.025 83.91 32.467 83.91 32.467"/><path class="cls-1" d="m31.468,19.947h2.342c-.35.446-.681,1.041-1.021,1.725l-2.664,5.264c-.377.714-.52,1.13-.721,1.785h-.068c-.07-.654-.131-1.07-.365-1.785l-1.681-5.264c-.203-.684-.415-1.279-.676-1.725h1.833l.303-3.034h-8.622l-.303,3.034h1.901l.636,1.784-3.164,5.174c-.368.624-.73,1.19-.962,1.814h-.068c-.07-.654-.187-1.19-.365-1.785l-1.647-5.264c-.203-.684-.415-1.279-.676-1.725h1.663l.303-3.034h-8.486l-.303,3.034h1.663l4.724,12.52h4.956l3.219-5.383c.242-.387.417-.773.575-1.338h.068c.012.565.143.951.274,1.338l1.839,5.383h4.956l7.394-12.52h1.629l.303-3.034h-8.486l-.303,3.034h0Z"/><path class="cls-2" d="m91.787,16.323c0,.581.461.955.979.955s.979-.374.979-.955-.461-.951-.979-.951-.979.372-.979.951h0Zm.26,0c0-.433.319-.747.719-.747.395,0,.719.313.719.747,0,.436-.323.752-.719.752-.4,0-.719-.316-.719-.752h0Zm.339.532h.212v-.456h.133l.259.456h.222l-.285-.466c.158-.013.28-.089.28-.285,0-.232-.151-.316-.418-.316h-.403v1.068h0Zm.212-.902h.179c.097,0,.219.018.219.132,0,.13-.089.148-.209.148h-.189v-.28h0Z"/></svg>